<svg xmlns="http://www.w3.org/2000/svg" viewBox="0 0 24 24" fill="url(#lexEnergy)" stroke="none"><defs><linearGradient id="lexEnergy" x1="4" y1="20" x2="20" y2="4" gradientUnits="userSpaceOnUse">
      <stop offset="0" stop-color="#28C7E8"/>
      <stop offset="1" stop-color="#A5F35A"/>
    </linearGradient></defs>
    <path d="M12 8.3C10.4 4.9 7.4 3 5 4.1 3.1 5 3 7.6 4.9 9.3 3 9.9 2.2 12 3.4 13.7c1.3 1.8 4.4 1.7 6.4-.2 1-1 1.7-2.2 2.2-3.4.5 1.2 1.2 2.4 2.2 3.4 2 1.9 5.1 2 6.4.2 1.2-1.7.4-3.8-1.5-4.4 1.9-1.7 1.8-4.3-.1-5.2C16.6 3 13.6 4.9 12 8.3Z"/>
    <path d="M12 8v10.4" stroke="#03151B" stroke-width="1.1" stroke-linecap="round"/>
    <path d="M12 8c-.5-1.2-1.2-2.1-2-2.6M12 8c.5-1.2 1.2-2.1 2-2.6" fill="none" stroke="#03151B" stroke-width="1" stroke-linecap="round" opacity=".55"/>
  </svg>
