<svg xmlns="http://www.w3.org/2000/svg" style="display:none" aria-hidden="true">
  <!-- MiaMe Brand Lexicon · Ultra Master Hero Gate V3.
       Sharp brand icons (NOT system emoji) — one <symbol> per lexicon pair.
       viewBox 0 0 24 24, stroke 1.75, round caps/joins. Stroke icons inherit
       currentColor (colored via CSS); bolt + butterfly carry a fixed
       cyan→lime brand gradient. Consumed via <use href="sprite.svg#name">. -->
  <defs>
    <linearGradient id="lexEnergy" x1="4" y1="20" x2="20" y2="4" gradientUnits="userSpaceOnUse">
      <stop offset="0" stop-color="#28C7E8"/>
      <stop offset="1" stop-color="#A5F35A"/>
    </linearGradient>
  </defs>

  <!-- ✅ L-finance · checkmark in a 320°-open ring -->
  <symbol id="check" viewBox="0 0 24 24" fill="none" stroke="currentColor"
          stroke-width="1.75" stroke-linecap="round" stroke-linejoin="round">
    <path d="M9.1 4.3 A8.4 8.4 0 1 0 14.9 4.3"/>
    <path d="M8.2 12.4 11 15.2 15.9 8.6"/>
  </symbol>

  <!-- 🗽 L1 accent · torch of liberty with a 7-ray crown -->
  <symbol id="liberty" viewBox="0 0 24 24" fill="none" stroke="currentColor"
          stroke-width="1.75" stroke-linecap="round" stroke-linejoin="round">
    <path d="M12 8.2c-1.7-1.9-1.7-3.4 0-5.4 1.7 2 1.7 3.5 0 5.4Z"/>
    <path d="M7.4 6.1 5.8 4.9M16.6 6.1 18.2 4.9M9.3 4.2 8.6 2.6M14.7 4.2 15.4 2.6M12 3.4V1.8"/>
    <path d="M12 8.4V15M9.6 15h4.8M8.8 18.4h6.4"/>
  </symbol>

  <!-- Ⓜ️ L2 · M (Space-Grotesk voice) inside a ring -->
  <symbol id="m-roundel" viewBox="0 0 24 24" fill="none" stroke="currentColor"
          stroke-width="1.75" stroke-linecap="round" stroke-linejoin="round">
    <circle cx="12" cy="12" r="9.1"/>
    <path d="M7.7 15.6V8.4l4.3 4.3 4.3-4.3v7.2"/>
  </symbol>

  <!-- ⚡ L3 · dual-track bolt (double line = 4 motors), energy gradient -->
  <symbol id="bolt" viewBox="0 0 24 24" fill="url(#lexEnergy)" stroke="none">
    <path d="M13.4 2 5.2 12.6h4.3L8.4 22l8.9-11.4h-4.6L14 2Z"/>
  </symbol>

  <!-- 🅿️ L4 · P in a ring, weight matched to the M -->
  <symbol id="p-roundel" viewBox="0 0 24 24" fill="none" stroke="currentColor"
          stroke-width="1.75" stroke-linecap="round" stroke-linejoin="round">
    <circle cx="12" cy="12" r="9.1"/>
    <path d="M9.6 16.2V7.8h3.1a2.55 2.55 0 0 1 0 5.1H9.6"/>
  </symbol>

  <!-- 🌐 L5 · globe · 2 meridians + a latitude line -->
  <symbol id="globe" viewBox="0 0 24 24" fill="none" stroke="currentColor"
          stroke-width="1.75" stroke-linecap="round" stroke-linejoin="round">
    <circle cx="12" cy="12" r="9"/>
    <path d="M12 3v18M3 12h18"/>
    <path d="M12 3c3 2.4 4.5 5.4 4.5 9s-1.5 6.6-4.5 9c-3-2.4-4.5-5.4-4.5-9s1.5-6.6 4.5-9Z"/>
  </symbol>

  <!-- 🦋 L6 · symmetric butterfly, wing = half-infinity, energy gradient -->
  <symbol id="butterfly" viewBox="0 0 24 24" fill="url(#lexEnergy)" stroke="none">
    <path d="M12 8.3C10.4 4.9 7.4 3 5 4.1 3.1 5 3 7.6 4.9 9.3 3 9.9 2.2 12 3.4 13.7c1.3 1.8 4.4 1.7 6.4-.2 1-1 1.7-2.2 2.2-3.4.5 1.2 1.2 2.4 2.2 3.4 2 1.9 5.1 2 6.4.2 1.2-1.7.4-3.8-1.5-4.4 1.9-1.7 1.8-4.3-.1-5.2C16.6 3 13.6 4.9 12 8.3Z"/>
    <path d="M12 8v10.4" stroke="#03151B" stroke-width="1.1" stroke-linecap="round"/>
    <path d="M12 8c-.5-1.2-1.2-2.1-2-2.6M12 8c.5-1.2 1.2-2.1 2-2.6" fill="none" stroke="#03151B" stroke-width="1" stroke-linecap="round" opacity=".55"/>
  </symbol>
</svg>
