<svg xmlns="http://www.w3.org/2000/svg" viewBox="0 0 300 96" role="img" aria-label="MiaMe" fill="none">
  <title>MiaMe · Free Feel</title>
  <!-- MiaMe logotype — Space Grotesk 700; the i-dot is the Free Feel butterfly. -->
  <text x="8" y="70" font-family="'Space Grotesk',system-ui,sans-serif" font-weight="700"
        font-size="76" letter-spacing="-2" fill="currentColor">M<tspan>&#x0131;</tspan>aMe</text>
  
    <g transform="translate(70.5 20) scale(0.62)">
      
      <path d="M12 8.3C10.4 4.9 7.4 3 5 4.1 3.1 5 3 7.6 4.9 9.3 3 9.9 2.2 12 3.4 13.7c1.3 1.8 4.4 1.7 6.4-.2 1-1 1.7-2.2 2.2-3.4.5 1.2 1.2 2.4 2.2 3.4 2 1.9 5.1 2 6.4.2 1.2-1.7.4-3.8-1.5-4.4 1.9-1.7 1.8-4.3-.1-5.2C16.6 3 13.6 4.9 12 8.3Z" fill="currentColor"/>
    </g>
</svg>
